# xmcd
#
# Track frame offsets:
#	150
#	13947
#	24594
#	39555
#	53946
#	68017
#	86235
#	101581
#	119665
#	135708
#	155028
#	170335
#
# Disc length: 2518 seconds
#
# Revision: 1
# Processed by: cddbd v1.5.2PL0 Copyright (c) Steve Scherf et al.
# Submitted via: EasyCDDAExtractor 12.0.6 .1
#
DISCID=a709d40c
DTITLE=夏妙然 - 好女精選
DYEAR=2001
DGENRE=Country
TTITLE0=潮退無聲
TTITLE1=唱家班
TTITLE2=畫中的你
TTITLE3=永沒有盡頭
TTITLE4=心影
TTITLE5=失去就失去
TTITLE6=只因喜歡你
TTITLE7=未完的歌
TTITLE8=親吻我的臉
TTITLE9=看看你
TTITLE10=最後一次
TTITLE11=前事錄了影
EXTD=
EXTT0=
EXTT1=
EXTT2=
EXTT3=
EXTT4=
EXTT5=
EXTT6=
EXTT7=
EXTT8=
EXTT9=
EXTT10=
EXTT11=
PLAYORDER=
